<svg xmlns="http://www.w3.org/2000/svg" xmlns:xlink="http://www.w3.org/1999/xlink" width="100" zoomAndPan="magnify" viewBox="0 0 75 30.000001" height="40" preserveAspectRatio="xMidYMid meet" version="1.0"><defs><g/><clipPath id="f9f50ecbfb"><path d="M 9.167969 2.902344 L 51 2.902344 L 51 16.78125 L 9.167969 16.78125 Z M 9.167969 2.902344 " clip-rule="nonzero"/></clipPath><clipPath id="8f23c845de"><path d="M 33 3 L 57.742188 3 L 57.742188 16.78125 L 33 16.78125 Z M 33 3 " clip-rule="nonzero"/></clipPath></defs><g clip-path="url(#f9f50ecbfb)"><path fill="#ed7d31" d="M 9.910156 16.746094 L 29.761719 3.902344 C 29.761719 3.902344 49.613281 16.746094 49.613281 16.746094 C 49.816406 16.878906 50.089844 16.820312 50.226562 16.613281 C 50.359375 16.40625 50.296875 16.132812 50.09375 16 C 50.09375 16 30 3.003906 30 3.003906 C 29.855469 2.90625 29.667969 2.90625 29.519531 3.003906 C 29.519531 3.003906 9.429688 16 9.429688 16 C 9.222656 16.132812 9.164062 16.40625 9.296875 16.613281 C 9.429688 16.820312 9.703125 16.878906 9.910156 16.746094 Z M 9.910156 16.746094 " fill-opacity="1" fill-rule="evenodd"/></g><g clip-path="url(#8f23c845de)"><path fill="#ed7d31" d="M 34.667969 6.527344 L 38.320312 4.167969 C 38.320312 4.167969 57.085938 16.476562 57.085938 16.476562 C 57.292969 16.613281 57.566406 16.554688 57.703125 16.351562 C 57.835938 16.144531 57.777344 15.871094 57.574219 15.738281 C 57.574219 15.738281 38.566406 3.265625 38.566406 3.265625 C 38.417969 3.171875 38.226562 3.167969 38.082031 3.265625 C 38.082031 3.265625 36.464844 4.3125 34.1875 5.785156 C 33.980469 5.917969 33.921875 6.191406 34.054688 6.398438 C 34.1875 6.601562 34.464844 6.660156 34.667969 6.527344 Z M 34.667969 6.527344 " fill-opacity="1" fill-rule="evenodd"/></g><path fill="#ed7d31" d="M 20.691406 9.371094 L 20.691406 6.023438 C 20.691406 5.777344 20.496094 5.582031 20.25 5.582031 L 16.558594 5.582031 C 16.3125 5.582031 16.113281 5.777344 16.113281 6.023438 L 16.113281 11.917969 C 16.113281 12.160156 16.3125 12.359375 16.558594 12.359375 C 16.800781 12.359375 17 12.160156 17 11.917969 L 17 6.464844 C 17 6.464844 19.808594 6.464844 19.808594 6.464844 L 19.808594 9.371094 C 19.808594 9.613281 20.007812 9.8125 20.25 9.8125 C 20.496094 9.8125 20.691406 9.613281 20.691406 9.371094 Z M 20.691406 9.371094 " fill-opacity="1" fill-rule="evenodd"/><g fill="#4472c4" fill-opacity="1"><g transform="translate(12.679894, 24.562846)"><g><path d="M 2.097656 0.0078125 C 2.203125 0.0078125 2.308594 0 2.414062 -0.0195312 C 2.550781 -0.0390625 2.703125 -0.046875 2.839844 -0.0859375 C 2.996094 -0.136719 3.082031 -0.25 3.207031 -0.339844 C 3.324219 -0.425781 3.429688 -0.492188 3.496094 -0.628906 C 3.574219 -0.773438 3.621094 -0.917969 3.660156 -1.082031 C 3.699219 -1.21875 3.71875 -1.351562 3.71875 -1.488281 C 3.71875 -1.691406 3.71875 -1.894531 3.71875 -2.097656 C 3.71875 -2.25 3.75 -2.394531 3.75 -2.550781 C 3.75 -2.753906 3.75 -2.957031 3.75 -3.148438 C 3.75 -3.246094 3.757812 -3.332031 3.757812 -3.429688 C 3.757812 -3.46875 3.757812 -3.515625 3.75 -3.566406 C 3.738281 -3.652344 3.730469 -3.730469 3.730469 -3.804688 C 3.730469 -3.914062 3.738281 -4.019531 3.75 -4.125 C 3.765625 -4.289062 3.757812 -4.453125 3.765625 -4.617188 C 3.777344 -4.664062 3.777344 -4.714844 3.777344 -4.753906 C 3.777344 -4.867188 3.757812 -4.976562 3.671875 -5.082031 C 3.621094 -5.140625 3.601562 -5.1875 3.601562 -5.246094 C 3.601562 -5.3125 3.640625 -5.378906 3.691406 -5.46875 C 3.730469 -5.527344 3.757812 -5.621094 3.757812 -5.710938 C 3.757812 -5.777344 3.738281 -5.84375 3.679688 -5.894531 C 3.632812 -5.941406 3.566406 -5.929688 3.496094 -5.941406 C 3.417969 -5.941406 3.265625 -5.96875 3.1875 -5.96875 C 3.003906 -5.96875 2.851562 -5.921875 2.851562 -5.746094 C 2.851562 -5.640625 2.859375 -5.554688 2.859375 -5.457031 C 2.859375 -5.371094 2.839844 -5.265625 2.839844 -5.167969 C 2.839844 -5.050781 2.878906 -4.957031 2.886719 -4.847656 C 2.898438 -4.78125 2.898438 -4.703125 2.898438 -4.628906 C 2.898438 -4.519531 2.898438 -4.414062 2.898438 -4.308594 C 2.898438 -3.921875 2.839844 -3.535156 2.839844 -3.140625 C 2.839844 -2.996094 2.878906 -2.8125 2.878906 -2.722656 C 2.878906 -2.597656 2.832031 -2.425781 2.832031 -2.261719 C 2.832031 -2.117188 2.851562 -1.988281 2.851562 -1.84375 C 2.851562 -1.796875 2.832031 -1.605469 2.832031 -1.488281 C 2.832031 -1.3125 2.703125 -1.121094 2.6875 -0.957031 C 2.667969 -0.839844 2.609375 -0.78125 2.511719 -0.78125 C 2.472656 -0.78125 2.375 -0.800781 2.320312 -0.820312 C 2.191406 -0.859375 2.078125 -0.878906 1.972656 -0.878906 C 1.824219 -0.878906 1.816406 -0.859375 1.691406 -0.859375 C 1.652344 -0.859375 1.605469 -0.871094 1.566406 -0.890625 C 1.488281 -0.925781 1.449219 -1.003906 1.382812 -1.054688 C 1.304688 -1.121094 1.253906 -1.1875 1.238281 -1.253906 C 1.207031 -1.34375 1.207031 -1.429688 1.199219 -1.535156 C 1.1875 -1.613281 1.179688 -1.699219 1.179688 -1.777344 C 1.179688 -1.816406 1.1875 -1.863281 1.1875 -1.914062 C 1.1875 -2.019531 1.121094 -2.066406 1.023438 -2.066406 C 0.984375 -2.066406 0.9375 -2.058594 0.898438 -2.046875 C 0.859375 -2.046875 0.820312 -2.039062 0.78125 -2.039062 C 0.734375 -2.039062 0.597656 -2.066406 0.511719 -2.066406 C 0.484375 -2.066406 0.445312 -2.058594 0.425781 -2.039062 C 0.359375 -1.988281 0.367188 -1.902344 0.359375 -1.824219 C 0.347656 -1.699219 0.320312 -1.59375 0.320312 -1.476562 C 0.320312 -1.429688 0.320312 -1.382812 0.339844 -1.324219 C 0.367188 -1.179688 0.367188 -1.015625 0.425781 -0.871094 C 0.492188 -0.714844 0.589844 -0.609375 0.707031 -0.503906 C 0.820312 -0.394531 0.925781 -0.25 1.0625 -0.175781 C 1.207031 -0.078125 1.382812 -0.0390625 1.546875 -0.0195312 C 1.738281 0.0078125 1.941406 0.0078125 2.097656 0.0078125 Z M 3.527344 -4.511719 C 3.457031 -4.511719 3.410156 -4.578125 3.410156 -4.628906 C 3.410156 -4.675781 3.4375 -4.742188 3.515625 -4.742188 C 3.582031 -4.742188 3.621094 -4.664062 3.621094 -4.617188 C 3.621094 -4.570312 3.59375 -4.511719 3.527344 -4.511719 Z M 2.144531 -0.359375 C 2.066406 -0.359375 2.019531 -0.425781 2.019531 -0.492188 C 2.019531 -0.539062 2.058594 -0.617188 2.136719 -0.617188 C 2.203125 -0.609375 2.25 -0.53125 2.25 -0.472656 C 2.25 -0.414062 2.222656 -0.359375 2.144531 -0.359375 Z M 2.144531 -0.359375 "/></g></g></g><g fill="#4472c4" fill-opacity="1"><g transform="translate(18.582056, 24.562846)"><g><path d="M 1.140625 0 C 1.226562 0 1.292969 -0.0195312 1.390625 -0.046875 C 1.488281 -0.0664062 1.515625 -0.105469 1.515625 -0.164062 C 1.515625 -0.230469 1.476562 -0.308594 1.476562 -0.375 C 1.476562 -0.394531 1.476562 -0.414062 1.488281 -0.433594 C 1.507812 -0.484375 1.546875 -0.523438 1.566406 -0.570312 C 1.59375 -0.617188 1.59375 -0.675781 1.59375 -0.734375 C 1.59375 -0.792969 1.59375 -0.851562 1.585938 -0.90625 C 1.566406 -1.089844 1.546875 -1.265625 1.546875 -1.449219 C 1.546875 -1.585938 1.566406 -1.796875 1.566406 -1.902344 C 1.566406 -2.078125 1.546875 -2.242188 1.546875 -2.414062 C 1.546875 -2.578125 1.574219 -2.667969 1.574219 -2.832031 C 1.574219 -2.925781 1.566406 -3.042969 1.566406 -3.226562 C 1.566406 -3.429688 1.605469 -3.75 1.605469 -4.078125 C 1.605469 -4.230469 1.605469 -4.394531 1.59375 -4.550781 C 1.59375 -4.628906 1.605469 -4.714844 1.605469 -4.800781 C 1.605469 -4.878906 1.59375 -4.925781 1.574219 -4.964844 C 1.554688 -5.03125 1.527344 -5.070312 1.527344 -5.140625 C 1.527344 -5.179688 1.546875 -5.226562 1.566406 -5.292969 C 1.574219 -5.34375 1.585938 -5.398438 1.585938 -5.476562 C 1.585938 -5.546875 1.585938 -5.621094 1.574219 -5.691406 C 1.574219 -5.757812 1.566406 -5.804688 1.554688 -5.855469 C 1.546875 -5.914062 1.507812 -5.929688 1.457031 -5.941406 C 1.421875 -5.941406 1.371094 -5.941406 1.332031 -5.941406 C 1.253906 -5.949219 1.179688 -5.960938 1.089844 -5.960938 C 1.074219 -5.960938 1.042969 -5.960938 1.023438 -5.960938 C 0.917969 -5.941406 0.773438 -5.929688 0.722656 -5.875 C 0.695312 -5.824219 0.6875 -5.730469 0.6875 -5.660156 C 0.6875 -5.613281 0.6875 -5.5625 0.6875 -5.515625 C 0.6875 -5.410156 0.667969 -5.285156 0.667969 -5.167969 C 0.667969 -5.042969 0.675781 -4.925781 0.6875 -4.8125 C 0.695312 -4.695312 0.707031 -4.578125 0.707031 -4.464844 C 0.707031 -4.164062 0.675781 -4.125 0.675781 -3.855469 C 0.675781 -3.710938 0.695312 -3.535156 0.695312 -3.363281 C 0.695312 -3.179688 0.675781 -2.957031 0.675781 -2.773438 C 0.675781 -2.6875 0.695312 -2.570312 0.695312 -2.464844 C 0.695312 -2.335938 0.667969 -2.203125 0.667969 -2.078125 C 0.667969 -1.988281 0.675781 -1.863281 0.675781 -1.777344 C 0.675781 -1.613281 0.65625 -1.457031 0.65625 -1.285156 C 0.65625 -1.148438 0.6875 -0.925781 0.800781 -0.925781 C 0.859375 -0.925781 0.917969 -0.964844 0.976562 -0.964844 C 1.042969 -0.964844 1.0625 -0.925781 1.0625 -0.898438 C 1.0625 -0.832031 0.984375 -0.742188 0.925781 -0.714844 C 0.820312 -0.667969 0.734375 -0.65625 0.695312 -0.53125 C 0.675781 -0.453125 0.65625 -0.339844 0.65625 -0.242188 C 0.65625 -0.0976562 0.722656 -0.046875 0.800781 -0.0273438 C 0.871094 -0.0195312 0.9375 -0.0195312 0.996094 -0.0078125 C 1.042969 0 1.101562 0 1.140625 0 Z M 1.0625 -4.628906 C 0.964844 -4.628906 0.890625 -4.703125 0.890625 -4.800781 C 0.890625 -4.859375 0.9375 -4.925781 0.996094 -4.925781 C 1.089844 -4.925781 1.148438 -4.832031 1.148438 -4.734375 C 1.148438 -4.675781 1.121094 -4.628906 1.0625 -4.628906 Z M 1.0625 -4.628906 "/></g></g></g><g fill="#4472c4" fill-opacity="1"><g transform="translate(22.368844, 24.562846)"><g><path d="M 1.1875 0.0078125 C 1.332031 0.0078125 1.496094 -0.0195312 1.535156 -0.136719 C 1.566406 -0.203125 1.566406 -0.269531 1.566406 -0.339844 C 1.566406 -0.484375 1.535156 -0.550781 1.535156 -0.6875 C 1.535156 -0.839844 1.59375 -0.984375 1.59375 -1.109375 C 1.59375 -1.199219 1.535156 -1.324219 1.535156 -1.429688 C 1.535156 -1.496094 1.574219 -1.613281 1.574219 -1.730469 C 1.574219 -1.777344 1.554688 -1.84375 1.527344 -1.902344 C 1.496094 -1.972656 1.488281 -2.039062 1.488281 -2.097656 C 1.488281 -2.210938 1.527344 -2.320312 1.566406 -2.445312 C 1.59375 -2.539062 1.671875 -2.570312 1.757812 -2.570312 C 1.863281 -2.570312 1.972656 -2.539062 2.164062 -2.539062 C 2.308594 -2.539062 2.445312 -2.550781 2.578125 -2.578125 C 2.617188 -2.589844 2.65625 -2.597656 2.695312 -2.597656 C 2.820312 -2.597656 2.945312 -2.550781 3.070312 -2.550781 C 3.207031 -2.550781 3.351562 -2.589844 3.496094 -2.589844 C 3.566406 -2.589844 3.632812 -2.578125 3.699219 -2.578125 C 3.730469 -2.578125 3.75 -2.578125 3.765625 -2.578125 C 3.882812 -2.597656 3.882812 -2.675781 3.894531 -2.773438 C 3.894531 -2.859375 3.921875 -2.945312 3.933594 -3.042969 C 3.933594 -3.082031 3.941406 -3.121094 3.941406 -3.167969 C 3.941406 -3.226562 3.933594 -3.285156 3.902344 -3.324219 C 3.863281 -3.402344 3.75 -3.449219 3.660156 -3.46875 C 3.59375 -3.476562 3.515625 -3.488281 3.4375 -3.488281 C 3.332031 -3.488281 3.21875 -3.476562 3.101562 -3.457031 C 3.050781 -3.449219 2.984375 -3.457031 2.925781 -3.457031 C 2.886719 -3.457031 2.851562 -3.457031 2.820312 -3.4375 C 2.753906 -3.382812 2.8125 -3.234375 2.695312 -3.234375 C 2.617188 -3.234375 2.539062 -3.3125 2.503906 -3.351562 C 2.425781 -3.417969 2.355469 -3.46875 2.242188 -3.46875 C 2.144531 -3.46875 2.046875 -3.457031 1.941406 -3.457031 C 1.863281 -3.457031 1.777344 -3.46875 1.699219 -3.488281 C 1.574219 -3.527344 1.546875 -3.613281 1.546875 -3.71875 C 1.546875 -3.816406 1.574219 -3.933594 1.574219 -4.027344 C 1.574219 -4.183594 1.546875 -4.335938 1.546875 -4.492188 C 1.546875 -4.636719 1.554688 -4.78125 1.554688 -4.917969 C 1.554688 -4.964844 1.566406 -5.015625 1.605469 -5.042969 C 1.652344 -5.082031 1.710938 -5.089844 1.769531 -5.089844 C 1.816406 -5.089844 1.863281 -5.082031 1.902344 -5.082031 C 2.019531 -5.082031 2.136719 -5.070312 2.261719 -5.070312 C 2.445312 -5.070312 2.617188 -5.101562 2.800781 -5.089844 C 2.917969 -5.082031 3.003906 -5.148438 3.128906 -5.148438 C 3.207031 -5.148438 3.285156 -5.101562 3.363281 -5.082031 C 3.4375 -5.0625 3.535156 -5.070312 3.632812 -5.070312 C 3.75 -5.070312 3.863281 -5.070312 3.96875 -5.109375 C 4.152344 -5.167969 4.066406 -5.410156 4.097656 -5.574219 C 4.097656 -5.601562 4.105469 -5.640625 4.105469 -5.679688 C 4.105469 -5.84375 4.078125 -5.980469 3.921875 -5.980469 C 3.757812 -5.980469 3.632812 -5.929688 3.46875 -5.929688 C 3.363281 -5.929688 3.082031 -5.960938 2.964844 -5.960938 C 2.839844 -5.960938 2.703125 -5.921875 2.570312 -5.921875 C 2.40625 -5.921875 2.25 -5.949219 2.078125 -5.949219 C 1.953125 -5.949219 1.863281 -5.902344 1.75 -5.863281 C 1.671875 -5.824219 1.613281 -5.816406 1.515625 -5.816406 C 1.363281 -5.816406 1.382812 -5.96875 1.179688 -5.96875 C 1.082031 -5.96875 0.984375 -5.941406 0.878906 -5.941406 C 0.800781 -5.941406 0.734375 -5.941406 0.6875 -5.863281 C 0.675781 -5.835938 0.667969 -5.796875 0.667969 -5.757812 C 0.667969 -5.691406 0.695312 -5.574219 0.695312 -5.457031 C 0.695312 -5.378906 0.667969 -5.207031 0.667969 -4.976562 C 0.667969 -4.8125 0.675781 -4.636719 0.675781 -4.472656 C 0.675781 -4.414062 0.675781 -4.355469 0.6875 -4.300781 C 0.695312 -4.191406 0.714844 -4.097656 0.714844 -3.980469 C 0.714844 -3.757812 0.675781 -3.566406 0.675781 -3.34375 C 0.675781 -3.140625 0.714844 -2.917969 0.714844 -2.703125 C 0.714844 -2.617188 0.722656 -2.472656 0.722656 -2.386719 C 0.722656 -2.191406 0.667969 -2.136719 0.667969 -1.988281 C 0.667969 -1.902344 0.6875 -1.824219 0.6875 -1.71875 C 0.6875 -1.632812 0.675781 -1.554688 0.675781 -1.457031 C 0.675781 -1.382812 0.695312 -1.324219 0.714844 -1.273438 C 0.742188 -1.226562 0.761719 -1.1875 0.761719 -1.128906 C 0.761719 -1.082031 0.742188 -1.035156 0.742188 -0.984375 C 0.742188 -0.925781 0.792969 -0.898438 0.839844 -0.878906 C 0.878906 -0.859375 0.917969 -0.839844 0.917969 -0.792969 C 0.917969 -0.734375 0.820312 -0.714844 0.773438 -0.695312 C 0.6875 -0.648438 0.65625 -0.558594 0.65625 -0.464844 C 0.65625 -0.394531 0.65625 -0.25 0.65625 -0.210938 C 0.65625 -0.105469 0.695312 -0.0078125 0.839844 -0.0078125 C 0.871094 -0.0078125 0.90625 -0.0078125 0.9375 -0.0078125 C 1.035156 -0.0078125 1.082031 0.0078125 1.1875 0.0078125 Z M 2.472656 -5.34375 C 2.394531 -5.34375 2.289062 -5.398438 2.289062 -5.488281 C 2.289062 -5.546875 2.335938 -5.574219 2.394531 -5.574219 C 2.484375 -5.574219 2.570312 -5.496094 2.570312 -5.417969 C 2.570312 -5.378906 2.519531 -5.34375 2.472656 -5.34375 Z M 3.371094 -2.957031 C 3.3125 -2.957031 3.265625 -2.984375 3.265625 -3.042969 C 3.265625 -3.109375 3.351562 -3.179688 3.417969 -3.179688 C 3.476562 -3.179688 3.515625 -3.148438 3.515625 -3.101562 C 3.515625 -3.035156 3.457031 -2.957031 3.371094 -2.957031 Z M 3.371094 -2.957031 "/></g></g></g><g fill="#4472c4" fill-opacity="1"><g transform="translate(28.444872, 24.562846)"><g><path d="M 4.648438 0 C 4.753906 0 4.78125 -0.046875 4.78125 -0.105469 C 4.78125 -0.203125 4.722656 -0.40625 4.703125 -0.492188 C 4.65625 -0.667969 4.609375 -0.839844 4.550781 -1.015625 C 4.5 -1.179688 4.453125 -1.34375 4.425781 -1.515625 C 4.40625 -1.640625 4.394531 -1.777344 4.367188 -1.902344 C 4.316406 -2.066406 4.191406 -2.210938 4.144531 -2.445312 C 4.117188 -2.609375 4.078125 -2.78125 4.066406 -2.957031 C 4.058594 -3.003906 4.046875 -3.050781 4.039062 -3.089844 C 4.007812 -3.207031 3.949219 -3.3125 3.921875 -3.417969 C 3.875 -3.582031 3.875 -3.757812 3.816406 -3.914062 C 3.75 -4.058594 3.691406 -4.210938 3.582031 -4.335938 C 3.535156 -4.40625 3.527344 -4.464844 3.527344 -4.519531 C 3.527344 -4.597656 3.546875 -4.683594 3.546875 -4.78125 C 3.546875 -4.945312 3.46875 -5.101562 3.4375 -5.265625 C 3.410156 -5.4375 3.382812 -5.621094 3.3125 -5.777344 C 3.246094 -5.949219 3.128906 -5.980469 2.964844 -5.980469 C 2.78125 -5.980469 2.636719 -5.988281 2.445312 -6 C 2.375 -6 2.300781 -6.007812 2.222656 -6.007812 C 1.933594 -6.007812 1.855469 -5.785156 1.824219 -5.632812 C 1.789062 -5.449219 1.71875 -5.304688 1.671875 -5.128906 C 1.621094 -4.976562 1.621094 -4.832031 1.585938 -4.675781 C 1.554688 -4.589844 1.488281 -4.453125 1.457031 -4.375 C 1.4375 -4.308594 1.429688 -4.230469 1.421875 -4.152344 C 1.390625 -4 1.332031 -3.863281 1.285156 -3.71875 C 1.238281 -3.546875 1.199219 -3.371094 1.148438 -3.199219 C 1.128906 -3.101562 1.121094 -3.003906 1.089844 -2.917969 C 1.074219 -2.839844 1.035156 -2.761719 1.003906 -2.695312 C 0.9375 -2.539062 0.917969 -2.445312 0.871094 -2.28125 C 0.832031 -2.117188 0.832031 -1.882812 0.78125 -1.71875 C 0.742188 -1.554688 0.695312 -1.382812 0.648438 -1.21875 C 0.609375 -1.074219 0.53125 -0.925781 0.503906 -0.773438 C 0.484375 -0.6875 0.484375 -0.597656 0.453125 -0.511719 C 0.425781 -0.425781 0.375 -0.359375 0.347656 -0.269531 C 0.339844 -0.242188 0.339844 -0.210938 0.339844 -0.183594 C 0.339844 -0.078125 0.414062 -0.0273438 0.558594 -0.0078125 C 0.714844 0 0.878906 0 1.035156 0 C 1.109375 0 1.167969 -0.0078125 1.207031 -0.0976562 C 1.273438 -0.210938 1.292969 -0.367188 1.34375 -0.492188 C 1.382812 -0.628906 1.449219 -0.976562 1.507812 -1.140625 C 1.554688 -1.285156 1.632812 -1.292969 1.769531 -1.292969 C 1.894531 -1.292969 2.078125 -1.3125 2.25 -1.3125 C 2.425781 -1.3125 2.511719 -1.273438 2.597656 -1.273438 C 2.734375 -1.273438 2.886719 -1.371094 3.035156 -1.371094 C 3.121094 -1.371094 3.199219 -1.324219 3.285156 -1.3125 C 3.34375 -1.304688 3.417969 -1.304688 3.476562 -1.292969 C 3.566406 -1.285156 3.632812 -1.253906 3.652344 -1.148438 C 3.679688 -1.0625 3.671875 -0.976562 3.699219 -0.890625 C 3.710938 -0.8125 3.738281 -0.742188 3.785156 -0.675781 C 3.835938 -0.597656 3.875 -0.539062 3.875 -0.453125 C 3.875 -0.367188 3.863281 -0.308594 3.902344 -0.222656 C 3.941406 -0.164062 4 -0.0976562 4.066406 -0.0664062 C 4.132812 -0.046875 4.210938 -0.046875 4.28125 -0.0390625 C 4.355469 -0.0195312 4.558594 0 4.648438 0 Z M 2.019531 -2.152344 C 1.863281 -2.152344 1.816406 -2.183594 1.816406 -2.300781 C 1.816406 -2.453125 1.882812 -2.703125 1.941406 -2.839844 C 1.972656 -2.925781 2.007812 -3.003906 2.027344 -3.089844 C 2.039062 -3.167969 2.039062 -3.246094 2.066406 -3.3125 C 2.085938 -3.390625 2.136719 -3.457031 2.164062 -3.527344 C 2.191406 -3.601562 2.203125 -3.671875 2.222656 -3.75 C 2.261719 -3.902344 2.289062 -4.046875 2.320312 -4.203125 C 2.347656 -4.347656 2.433594 -4.472656 2.464844 -4.617188 C 2.472656 -4.664062 2.472656 -4.742188 2.472656 -4.800781 C 2.484375 -4.886719 2.519531 -4.945312 2.597656 -4.945312 C 2.636719 -4.945312 2.675781 -4.9375 2.714844 -4.9375 C 2.773438 -4.9375 2.8125 -4.976562 2.839844 -5.015625 C 2.867188 -5.0625 2.945312 -5.148438 3.015625 -5.148438 C 3.042969 -5.148438 3.082031 -5.128906 3.082031 -5.070312 C 3.082031 -4.964844 2.9375 -4.886719 2.867188 -4.839844 C 2.773438 -4.792969 2.722656 -4.742188 2.722656 -4.65625 C 2.722656 -4.636719 2.722656 -4.609375 2.734375 -4.578125 C 2.773438 -4.445312 2.832031 -4.308594 2.859375 -4.164062 C 2.886719 -4.027344 2.90625 -3.882812 2.925781 -3.75 C 2.957031 -3.59375 3.015625 -3.488281 3.070312 -3.34375 C 3.121094 -3.226562 3.128906 -3.101562 3.148438 -2.976562 C 3.179688 -2.820312 3.207031 -2.695312 3.285156 -2.558594 C 3.3125 -2.492188 3.332031 -2.433594 3.34375 -2.367188 C 3.351562 -2.347656 3.351562 -2.289062 3.351562 -2.242188 C 3.351562 -2.171875 3.324219 -2.152344 3.285156 -2.152344 C 3.226562 -2.152344 3.121094 -2.171875 3.050781 -2.171875 C 2.996094 -2.171875 2.832031 -2.152344 2.742188 -2.152344 C 2.578125 -2.152344 2.472656 -2.183594 2.335938 -2.183594 C 2.222656 -2.183594 2.136719 -2.152344 2.019531 -2.152344 Z M 3.949219 -2.242188 C 3.855469 -2.242188 3.71875 -2.355469 3.71875 -2.453125 C 3.71875 -2.53125 3.777344 -2.578125 3.835938 -2.578125 C 3.921875 -2.578125 4.019531 -2.386719 4.019531 -2.308594 C 4.019531 -2.261719 3.980469 -2.242188 3.949219 -2.242188 Z M 3.949219 -2.242188 "/></g></g></g><g fill="#4472c4" fill-opacity="1"><g transform="translate(35.081135, 24.562846)"><g><path d="M 3.933594 0 C 4.027344 0 4.117188 -0.0273438 4.203125 -0.0273438 C 4.261719 -0.0273438 4.316406 -0.0195312 4.375 -0.0195312 C 4.492188 -0.0195312 4.589844 -0.0390625 4.589844 -0.164062 C 4.589844 -0.183594 4.589844 -0.210938 4.578125 -0.242188 C 4.53125 -0.425781 4.433594 -0.578125 4.367188 -0.761719 C 4.316406 -0.878906 4.289062 -1.015625 4.242188 -1.140625 C 4.183594 -1.285156 4.105469 -1.371094 4.046875 -1.515625 C 4.007812 -1.605469 3.988281 -1.710938 3.96875 -1.804688 C 3.941406 -1.972656 3.816406 -2.183594 3.816406 -2.328125 C 3.816406 -2.472656 3.921875 -2.503906 4.019531 -2.570312 C 4.097656 -2.636719 4.183594 -2.695312 4.25 -2.761719 C 4.375 -2.886719 4.464844 -3.101562 4.511719 -3.304688 C 4.570312 -3.488281 4.597656 -3.660156 4.597656 -3.875 C 4.597656 -4.066406 4.578125 -4.242188 4.578125 -4.433594 C 4.578125 -4.597656 4.53125 -4.753906 4.511719 -4.917969 C 4.480469 -5.101562 4.414062 -5.265625 4.289062 -5.410156 C 4.210938 -5.488281 4.144531 -5.554688 4.078125 -5.640625 C 4.027344 -5.71875 3.980469 -5.746094 3.894531 -5.777344 C 3.710938 -5.835938 3.546875 -5.921875 3.363281 -5.960938 C 3.292969 -5.96875 3.234375 -5.980469 3.179688 -5.980469 C 3.042969 -5.980469 2.90625 -5.960938 2.773438 -5.960938 C 2.558594 -5.960938 2.347656 -5.980469 2.136719 -5.980469 C 1.960938 -5.980469 1.796875 -5.941406 1.621094 -5.941406 C 1.4375 -5.941406 1.1875 -5.988281 1.023438 -5.988281 C 0.761719 -5.988281 0.675781 -5.902344 0.675781 -5.699219 C 0.675781 -5.515625 0.753906 -5.417969 0.753906 -5.304688 C 0.753906 -5.140625 0.695312 -5.050781 0.695312 -4.886719 C 0.695312 -4.8125 0.695312 -4.734375 0.695312 -4.65625 C 0.695312 -4.433594 0.65625 -4.203125 0.65625 -3.96875 C 0.65625 -3.738281 0.6875 -3.59375 0.707031 -3.402344 C 0.714844 -3.207031 0.714844 -3.003906 0.722656 -2.8125 C 0.722656 -2.628906 0.734375 -2.464844 0.734375 -2.261719 C 0.734375 -2.164062 0.707031 -2.066406 0.707031 -1.953125 C 0.707031 -1.875 0.734375 -1.796875 0.800781 -1.738281 C 0.878906 -1.671875 0.996094 -1.605469 0.996094 -1.507812 C 0.996094 -1.382812 0.820312 -1.34375 0.742188 -1.253906 C 0.695312 -1.207031 0.675781 -1.140625 0.675781 -1.082031 C 0.675781 -0.984375 0.714844 -0.878906 0.714844 -0.722656 C 0.714844 -0.578125 0.695312 -0.445312 0.695312 -0.308594 C 0.695312 -0.175781 0.707031 -0.046875 0.878906 -0.046875 C 0.957031 -0.046875 1.089844 -0.0585938 1.179688 -0.0585938 C 1.292969 -0.0585938 1.324219 -0.0390625 1.421875 -0.0390625 C 1.535156 -0.0390625 1.574219 -0.136719 1.574219 -0.269531 C 1.574219 -0.445312 1.566406 -0.539062 1.566406 -0.722656 C 1.566406 -0.9375 1.59375 -1.140625 1.59375 -1.285156 C 1.59375 -1.449219 1.554688 -1.640625 1.554688 -1.804688 C 1.554688 -1.933594 1.566406 -2.046875 1.566406 -2.117188 C 1.566406 -2.203125 1.574219 -2.261719 1.75 -2.261719 C 1.855469 -2.261719 2.183594 -2.25 2.269531 -2.242188 C 2.328125 -2.242188 2.375 -2.230469 2.425781 -2.230469 C 2.511719 -2.230469 2.609375 -2.261719 2.6875 -2.261719 C 2.714844 -2.261719 2.742188 -2.261719 2.773438 -2.242188 C 2.878906 -2.203125 2.917969 -2.125 2.964844 -2.027344 C 2.996094 -1.953125 3.035156 -1.863281 3.042969 -1.789062 C 3.0625 -1.71875 3.070312 -1.652344 3.101562 -1.59375 C 3.148438 -1.4375 3.234375 -1.34375 3.273438 -1.238281 C 3.304688 -1.140625 3.3125 -1.042969 3.34375 -0.945312 C 3.363281 -0.851562 3.417969 -0.753906 3.449219 -0.65625 C 3.476562 -0.550781 3.515625 -0.394531 3.566406 -0.28125 C 3.582031 -0.210938 3.621094 -0.144531 3.671875 -0.0976562 C 3.738281 -0.0273438 3.84375 0 3.933594 0 Z M 3.167969 -3.109375 C 2.984375 -3.109375 2.878906 -3.140625 2.714844 -3.140625 C 2.648438 -3.140625 2.578125 -3.128906 2.453125 -3.128906 C 2.320312 -3.128906 2.222656 -3.148438 2.097656 -3.148438 C 1.941406 -3.148438 1.84375 -3.121094 1.75 -3.121094 C 1.652344 -3.121094 1.605469 -3.167969 1.585938 -3.304688 C 1.554688 -3.46875 1.535156 -3.632812 1.535156 -3.796875 C 1.535156 -3.96875 1.585938 -4.171875 1.585938 -4.308594 C 1.585938 -4.40625 1.527344 -4.664062 1.527344 -4.800781 C 1.527344 -4.996094 1.660156 -5.101562 1.933594 -5.101562 C 2.085938 -5.101562 2.25 -5.089844 2.40625 -5.089844 C 2.519531 -5.089844 2.675781 -5.121094 2.773438 -5.121094 C 2.878906 -5.121094 2.976562 -5.070312 3.082031 -5.070312 C 3.140625 -5.070312 3.21875 -5.082031 3.265625 -5.082031 C 3.34375 -5.082031 3.410156 -5.0625 3.488281 -5.003906 C 3.613281 -4.917969 3.679688 -4.800781 3.679688 -4.609375 C 3.679688 -4.511719 3.660156 -4.316406 3.660156 -4.132812 C 3.660156 -3.96875 3.679688 -3.816406 3.679688 -3.691406 C 3.679688 -3.640625 3.679688 -3.59375 3.660156 -3.546875 C 3.613281 -3.324219 3.390625 -3.109375 3.167969 -3.109375 Z M 1.777344 -2.617188 C 1.699219 -2.617188 1.585938 -2.703125 1.585938 -2.792969 C 1.585938 -2.867188 1.640625 -2.90625 1.699219 -2.90625 C 1.796875 -2.90625 1.855469 -2.761719 1.855469 -2.695312 C 1.855469 -2.636719 1.824219 -2.617188 1.777344 -2.617188 Z M 1.777344 -2.617188 "/></g></g></g><g fill="#8ba6d6" fill-opacity="1"><g transform="translate(41.911782, 22.414149)"><g><path d="M 0.15625 -0.484375 C 0.125 -0.484375 0.101562 -0.5 0.09375 -0.53125 C 0.0820312 -0.5625 0.078125 -0.601562 0.078125 -0.65625 C 0.078125 -0.664062 0.078125 -0.675781 0.078125 -0.6875 C 0.078125 -0.695312 0.078125 -0.71875 0.078125 -0.75 C 0.078125 -0.863281 0.132812 -0.929688 0.25 -0.953125 L 0.3125 -0.953125 C 0.34375 -0.960938 0.367188 -0.972656 0.390625 -0.984375 C 0.421875 -1.003906 0.4375 -1.035156 0.4375 -1.078125 C 0.46875 -1.171875 0.5 -1.265625 0.53125 -1.359375 C 0.5625 -1.453125 0.59375 -1.546875 0.625 -1.640625 C 0.632812 -1.691406 0.644531 -1.75 0.65625 -1.8125 C 0.675781 -1.875 0.695312 -1.929688 0.71875 -1.984375 C 0.738281 -2.046875 0.765625 -2.101562 0.796875 -2.15625 C 0.828125 -2.21875 0.859375 -2.273438 0.890625 -2.328125 C 0.898438 -2.347656 0.914062 -2.367188 0.9375 -2.390625 C 0.96875 -2.410156 1 -2.425781 1.03125 -2.4375 C 1.070312 -2.457031 1.109375 -2.472656 1.140625 -2.484375 C 1.179688 -2.492188 1.222656 -2.5 1.265625 -2.5 C 1.316406 -2.5 1.363281 -2.484375 1.40625 -2.453125 C 1.476562 -2.410156 1.546875 -2.359375 1.609375 -2.296875 C 1.671875 -2.234375 1.738281 -2.148438 1.8125 -2.046875 C 1.882812 -1.953125 1.972656 -1.835938 2.078125 -1.703125 C 2.179688 -1.566406 2.304688 -1.398438 2.453125 -1.203125 C 2.472656 -1.179688 2.492188 -1.160156 2.515625 -1.140625 C 2.535156 -1.128906 2.566406 -1.125 2.609375 -1.125 L 2.75 -1.125 C 2.800781 -1.125 2.84375 -1.109375 2.875 -1.078125 C 2.90625 -1.054688 2.921875 -1.019531 2.921875 -0.96875 C 2.921875 -0.96875 2.921875 -0.957031 2.921875 -0.9375 C 2.921875 -0.925781 2.921875 -0.914062 2.921875 -0.90625 L 2.875 -0.765625 C 2.863281 -0.753906 2.859375 -0.742188 2.859375 -0.734375 C 2.859375 -0.722656 2.859375 -0.710938 2.859375 -0.703125 C 2.859375 -0.660156 2.867188 -0.625 2.890625 -0.59375 L 3.15625 -0.234375 C 3.1875 -0.191406 3.203125 -0.148438 3.203125 -0.109375 C 3.203125 -0.046875 3.171875 0.00390625 3.109375 0.046875 L 3.015625 0.109375 C 2.984375 0.128906 2.957031 0.140625 2.9375 0.140625 C 2.914062 0.148438 2.894531 0.15625 2.875 0.15625 C 2.84375 0.15625 2.816406 0.144531 2.796875 0.125 C 2.773438 0.113281 2.75 0.09375 2.71875 0.0625 C 2.644531 -0.0390625 2.566406 -0.144531 2.484375 -0.25 C 2.398438 -0.363281 2.316406 -0.476562 2.234375 -0.59375 C 2.203125 -0.644531 2.15625 -0.671875 2.09375 -0.671875 C 1.894531 -0.660156 1.695312 -0.644531 1.5 -0.625 C 1.300781 -0.613281 1.101562 -0.597656 0.90625 -0.578125 C 0.832031 -0.578125 0.785156 -0.539062 0.765625 -0.46875 L 0.65625 -0.0625 C 0.625 0.0390625 0.554688 0.09375 0.453125 0.09375 L 0.34375 0.09375 C 0.289062 0.0820312 0.25 0.0625 0.21875 0.03125 C 0.1875 0.0078125 0.171875 -0.0234375 0.171875 -0.078125 C 0.171875 -0.0859375 0.171875 -0.0976562 0.171875 -0.109375 C 0.171875 -0.117188 0.175781 -0.128906 0.1875 -0.140625 C 0.1875 -0.171875 0.191406 -0.203125 0.203125 -0.234375 C 0.210938 -0.273438 0.222656 -0.3125 0.234375 -0.34375 C 0.242188 -0.363281 0.25 -0.378906 0.25 -0.390625 C 0.25 -0.398438 0.25 -0.410156 0.25 -0.421875 C 0.25 -0.460938 0.226562 -0.484375 0.1875 -0.484375 Z M 1.328125 -1.796875 C 1.316406 -1.804688 1.300781 -1.816406 1.28125 -1.828125 C 1.269531 -1.835938 1.257812 -1.84375 1.25 -1.84375 C 1.207031 -1.84375 1.175781 -1.816406 1.15625 -1.765625 C 1.125 -1.660156 1.09375 -1.5625 1.0625 -1.46875 C 1.03125 -1.375 1 -1.28125 0.96875 -1.1875 C 0.96875 -1.175781 0.96875 -1.164062 0.96875 -1.15625 C 0.96875 -1.15625 0.96875 -1.148438 0.96875 -1.140625 C 0.96875 -1.078125 1 -1.046875 1.0625 -1.046875 L 1.09375 -1.046875 C 1.1875 -1.054688 1.28125 -1.066406 1.375 -1.078125 C 1.476562 -1.085938 1.582031 -1.09375 1.6875 -1.09375 C 1.71875 -1.101562 1.738281 -1.113281 1.75 -1.125 C 1.769531 -1.132812 1.78125 -1.148438 1.78125 -1.171875 C 1.78125 -1.203125 1.769531 -1.226562 1.75 -1.25 C 1.6875 -1.34375 1.617188 -1.429688 1.546875 -1.515625 C 1.472656 -1.609375 1.398438 -1.703125 1.328125 -1.796875 Z M 1.328125 -1.796875 "/></g></g></g><g fill="#8ba6d6" fill-opacity="1"><g transform="translate(46.065713, 22.414149)"><g><path d="M 1.515625 -1.921875 C 1.585938 -1.921875 1.660156 -1.914062 1.734375 -1.90625 C 1.804688 -1.894531 1.867188 -1.878906 1.921875 -1.859375 C 1.984375 -1.847656 2.035156 -1.835938 2.078125 -1.828125 C 2.117188 -1.816406 2.148438 -1.8125 2.171875 -1.8125 C 2.179688 -1.8125 2.191406 -1.816406 2.203125 -1.828125 C 2.222656 -1.847656 2.238281 -1.863281 2.25 -1.875 C 2.269531 -1.894531 2.296875 -1.910156 2.328125 -1.921875 C 2.367188 -1.941406 2.414062 -1.953125 2.46875 -1.953125 C 2.53125 -1.953125 2.578125 -1.9375 2.609375 -1.90625 C 2.648438 -1.875 2.671875 -1.835938 2.671875 -1.796875 C 2.671875 -1.191406 2.648438 -0.675781 2.609375 -0.25 C 2.566406 0.164062 2.5 0.503906 2.40625 0.765625 C 2.3125 1.035156 2.191406 1.226562 2.046875 1.34375 C 1.898438 1.457031 1.722656 1.515625 1.515625 1.515625 C 1.421875 1.515625 1.320312 1.492188 1.21875 1.453125 C 1.113281 1.410156 1.019531 1.351562 0.9375 1.28125 C 0.851562 1.21875 0.78125 1.144531 0.71875 1.0625 C 0.664062 0.988281 0.640625 0.914062 0.640625 0.84375 C 0.640625 0.8125 0.648438 0.78125 0.671875 0.75 C 0.703125 0.71875 0.734375 0.6875 0.765625 0.65625 C 0.804688 0.625 0.847656 0.597656 0.890625 0.578125 C 0.929688 0.554688 0.96875 0.546875 1 0.546875 C 1.03125 0.546875 1.054688 0.554688 1.078125 0.578125 C 1.097656 0.609375 1.117188 0.640625 1.140625 0.671875 C 1.160156 0.710938 1.179688 0.753906 1.203125 0.796875 C 1.222656 0.847656 1.242188 0.890625 1.265625 0.921875 C 1.296875 0.960938 1.332031 0.992188 1.375 1.015625 C 1.425781 1.046875 1.484375 1.0625 1.546875 1.0625 C 1.898438 1.0625 2.109375 0.515625 2.171875 -0.578125 C 2.171875 -0.628906 2.160156 -0.65625 2.140625 -0.65625 C 2.109375 -0.65625 2.085938 -0.644531 2.078125 -0.625 C 1.921875 -0.414062 1.738281 -0.257812 1.53125 -0.15625 C 1.332031 -0.0507812 1.101562 0 0.84375 0 C 0.726562 0 0.617188 -0.015625 0.515625 -0.046875 C 0.421875 -0.078125 0.335938 -0.125 0.265625 -0.1875 C 0.191406 -0.257812 0.132812 -0.335938 0.09375 -0.421875 C 0.0625 -0.515625 0.046875 -0.613281 0.046875 -0.71875 C 0.046875 -0.820312 0.0625 -0.921875 0.09375 -1.015625 C 0.132812 -1.117188 0.1875 -1.210938 0.25 -1.296875 C 0.320312 -1.390625 0.40625 -1.472656 0.5 -1.546875 C 0.59375 -1.628906 0.691406 -1.695312 0.796875 -1.75 C 0.898438 -1.8125 1.015625 -1.851562 1.140625 -1.875 C 1.265625 -1.90625 1.390625 -1.921875 1.515625 -1.921875 Z M 0.921875 -0.453125 C 1.148438 -0.453125 1.359375 -0.519531 1.546875 -0.65625 C 1.734375 -0.800781 1.894531 -1.007812 2.03125 -1.28125 C 2.03125 -1.289062 2.03125 -1.296875 2.03125 -1.296875 C 2.039062 -1.304688 2.046875 -1.316406 2.046875 -1.328125 C 2.046875 -1.347656 2.023438 -1.363281 1.984375 -1.375 C 1.953125 -1.394531 1.90625 -1.410156 1.84375 -1.421875 C 1.789062 -1.441406 1.726562 -1.453125 1.65625 -1.453125 C 1.582031 -1.460938 1.507812 -1.46875 1.4375 -1.46875 C 1.320312 -1.46875 1.207031 -1.445312 1.09375 -1.40625 C 0.988281 -1.375 0.894531 -1.320312 0.8125 -1.25 C 0.726562 -1.1875 0.660156 -1.113281 0.609375 -1.03125 C 0.554688 -0.945312 0.53125 -0.859375 0.53125 -0.765625 C 0.53125 -0.671875 0.566406 -0.59375 0.640625 -0.53125 C 0.710938 -0.476562 0.804688 -0.453125 0.921875 -0.453125 Z M 0.921875 -0.453125 "/></g></g></g><g fill="#8ba6d6" fill-opacity="1"><g transform="translate(50.113536, 22.414149)"><g><path d="M 2.3125 -0.546875 C 2.351562 -0.585938 2.398438 -0.609375 2.453125 -0.609375 C 2.472656 -0.609375 2.492188 -0.597656 2.515625 -0.578125 C 2.535156 -0.566406 2.5625 -0.546875 2.59375 -0.515625 C 2.613281 -0.484375 2.628906 -0.453125 2.640625 -0.421875 C 2.648438 -0.398438 2.65625 -0.378906 2.65625 -0.359375 C 2.65625 -0.304688 2.632812 -0.257812 2.59375 -0.21875 C 2.507812 -0.15625 2.421875 -0.0976562 2.328125 -0.046875 C 2.234375 0.00390625 2.132812 0.046875 2.03125 0.078125 C 1.9375 0.117188 1.832031 0.148438 1.71875 0.171875 C 1.613281 0.191406 1.507812 0.203125 1.40625 0.203125 C 1.28125 0.203125 1.15625 0.179688 1.03125 0.140625 C 0.914062 0.109375 0.8125 0.0625 0.71875 0 C 0.625 -0.0625 0.546875 -0.132812 0.484375 -0.21875 C 0.421875 -0.300781 0.378906 -0.398438 0.359375 -0.515625 C 0.347656 -0.554688 0.332031 -0.582031 0.3125 -0.59375 C 0.300781 -0.613281 0.28125 -0.625 0.25 -0.625 C 0.195312 -0.625 0.148438 -0.640625 0.109375 -0.671875 C 0.078125 -0.703125 0.0625 -0.742188 0.0625 -0.796875 C 0.0625 -0.816406 0.0664062 -0.832031 0.078125 -0.84375 L 0.078125 -0.890625 C 0.0859375 -0.953125 0.101562 -0.992188 0.125 -1.015625 C 0.144531 -1.046875 0.179688 -1.0625 0.234375 -1.0625 L 0.28125 -1.0625 C 0.34375 -1.0625 0.390625 -1.09375 0.421875 -1.15625 C 0.472656 -1.269531 0.535156 -1.375 0.609375 -1.46875 C 0.691406 -1.5625 0.78125 -1.640625 0.875 -1.703125 C 0.976562 -1.773438 1.085938 -1.828125 1.203125 -1.859375 C 1.316406 -1.898438 1.429688 -1.921875 1.546875 -1.921875 C 1.671875 -1.921875 1.785156 -1.898438 1.890625 -1.859375 C 1.992188 -1.828125 2.082031 -1.78125 2.15625 -1.71875 C 2.238281 -1.65625 2.300781 -1.582031 2.34375 -1.5 C 2.394531 -1.414062 2.421875 -1.328125 2.421875 -1.234375 C 2.421875 -1.160156 2.40625 -1.097656 2.375 -1.046875 C 2.351562 -0.992188 2.316406 -0.941406 2.265625 -0.890625 C 2.210938 -0.847656 2.148438 -0.8125 2.078125 -0.78125 C 2.015625 -0.757812 1.9375 -0.75 1.84375 -0.75 L 0.984375 -0.65625 C 0.953125 -0.65625 0.925781 -0.644531 0.90625 -0.625 C 0.882812 -0.613281 0.875 -0.59375 0.875 -0.5625 C 0.875 -0.519531 0.890625 -0.476562 0.921875 -0.4375 C 0.953125 -0.40625 0.992188 -0.375 1.046875 -0.34375 C 1.109375 -0.3125 1.171875 -0.285156 1.234375 -0.265625 C 1.304688 -0.242188 1.378906 -0.234375 1.453125 -0.234375 C 1.523438 -0.234375 1.597656 -0.238281 1.671875 -0.25 C 1.753906 -0.269531 1.832031 -0.289062 1.90625 -0.3125 C 1.976562 -0.34375 2.046875 -0.375 2.109375 -0.40625 C 2.179688 -0.445312 2.25 -0.492188 2.3125 -0.546875 Z M 1.75 -1.171875 C 1.78125 -1.179688 1.800781 -1.195312 1.8125 -1.21875 C 1.832031 -1.238281 1.84375 -1.257812 1.84375 -1.28125 C 1.84375 -1.3125 1.832031 -1.335938 1.8125 -1.359375 C 1.800781 -1.378906 1.78125 -1.394531 1.75 -1.40625 C 1.71875 -1.425781 1.679688 -1.441406 1.640625 -1.453125 C 1.597656 -1.460938 1.554688 -1.46875 1.515625 -1.46875 C 1.441406 -1.46875 1.367188 -1.457031 1.296875 -1.4375 C 1.222656 -1.414062 1.15625 -1.390625 1.09375 -1.359375 C 1.039062 -1.328125 0.992188 -1.289062 0.953125 -1.25 C 0.921875 -1.21875 0.90625 -1.179688 0.90625 -1.140625 C 0.90625 -1.097656 0.929688 -1.078125 0.984375 -1.078125 C 1.003906 -1.078125 1.046875 -1.082031 1.109375 -1.09375 C 1.179688 -1.101562 1.253906 -1.109375 1.328125 -1.109375 C 1.398438 -1.117188 1.472656 -1.128906 1.546875 -1.140625 C 1.628906 -1.160156 1.695312 -1.171875 1.75 -1.171875 Z M 1.75 -1.171875 "/></g></g></g><g fill="#8ba6d6" fill-opacity="1"><g transform="translate(53.894851, 22.414149)"><g><path d="M 0.25 -2 C 0.25 -2.019531 0.257812 -2.039062 0.28125 -2.0625 C 0.300781 -2.09375 0.328125 -2.113281 0.359375 -2.125 C 0.398438 -2.144531 0.441406 -2.160156 0.484375 -2.171875 C 0.523438 -2.191406 0.566406 -2.203125 0.609375 -2.203125 C 0.640625 -2.203125 0.660156 -2.191406 0.671875 -2.171875 C 0.691406 -2.160156 0.707031 -2.132812 0.71875 -2.09375 C 0.726562 -2.0625 0.738281 -2.007812 0.75 -1.9375 C 0.769531 -1.875 0.78125 -1.789062 0.78125 -1.6875 C 0.789062 -1.65625 0.796875 -1.628906 0.796875 -1.609375 C 0.804688 -1.585938 0.816406 -1.578125 0.828125 -1.578125 C 0.847656 -1.578125 0.863281 -1.601562 0.875 -1.65625 C 1 -2.007812 1.171875 -2.1875 1.390625 -2.1875 C 1.503906 -2.1875 1.601562 -2.148438 1.6875 -2.078125 C 1.769531 -2.015625 1.847656 -1.90625 1.921875 -1.75 C 2.003906 -1.601562 2.078125 -1.410156 2.140625 -1.171875 C 2.203125 -0.929688 2.269531 -0.632812 2.34375 -0.28125 C 2.34375 -0.257812 2.34375 -0.238281 2.34375 -0.21875 C 2.351562 -0.207031 2.359375 -0.195312 2.359375 -0.1875 C 2.359375 -0.144531 2.347656 -0.109375 2.328125 -0.078125 C 2.304688 -0.0546875 2.28125 -0.0351562 2.25 -0.015625 C 2.226562 -0.00390625 2.195312 0.00390625 2.15625 0.015625 C 2.125 0.0234375 2.09375 0.03125 2.0625 0.03125 C 1.988281 0.03125 1.9375 0.0195312 1.90625 0 C 1.875 -0.0078125 1.859375 -0.0351562 1.859375 -0.078125 C 1.804688 -0.328125 1.753906 -0.546875 1.703125 -0.734375 C 1.660156 -0.929688 1.617188 -1.09375 1.578125 -1.21875 C 1.535156 -1.351562 1.492188 -1.457031 1.453125 -1.53125 C 1.410156 -1.601562 1.367188 -1.640625 1.328125 -1.640625 C 1.285156 -1.640625 1.242188 -1.609375 1.203125 -1.546875 C 1.160156 -1.492188 1.125 -1.410156 1.09375 -1.296875 C 1.0625 -1.191406 1.03125 -1.050781 1 -0.875 C 0.96875 -0.695312 0.9375 -0.488281 0.90625 -0.25 C 0.894531 -0.175781 0.859375 -0.117188 0.796875 -0.078125 C 0.742188 -0.046875 0.671875 -0.03125 0.578125 -0.03125 C 0.523438 -0.03125 0.484375 -0.0390625 0.453125 -0.0625 C 0.421875 -0.09375 0.398438 -0.128906 0.390625 -0.171875 C 0.378906 -0.515625 0.363281 -0.796875 0.34375 -1.015625 C 0.332031 -1.234375 0.316406 -1.410156 0.296875 -1.546875 C 0.285156 -1.679688 0.273438 -1.78125 0.265625 -1.84375 C 0.253906 -1.914062 0.25 -1.96875 0.25 -2 Z M 0.25 -2 "/></g></g></g><g fill="#8ba6d6" fill-opacity="1"><g transform="translate(57.468882, 22.414149)"><g><path d="M 1.078125 -2.046875 C 1.160156 -2.046875 1.242188 -2.03125 1.328125 -2 C 1.410156 -1.976562 1.484375 -1.945312 1.546875 -1.90625 C 1.609375 -1.863281 1.65625 -1.8125 1.6875 -1.75 C 1.726562 -1.695312 1.75 -1.644531 1.75 -1.59375 C 1.75 -1.5625 1.738281 -1.523438 1.71875 -1.484375 C 1.707031 -1.453125 1.6875 -1.421875 1.65625 -1.390625 C 1.632812 -1.367188 1.609375 -1.347656 1.578125 -1.328125 C 1.546875 -1.316406 1.515625 -1.3125 1.484375 -1.3125 C 1.441406 -1.3125 1.40625 -1.328125 1.375 -1.359375 C 1.34375 -1.390625 1.304688 -1.421875 1.265625 -1.453125 C 1.234375 -1.492188 1.195312 -1.523438 1.15625 -1.546875 C 1.113281 -1.578125 1.0625 -1.59375 1 -1.59375 C 0.945312 -1.59375 0.894531 -1.578125 0.84375 -1.546875 C 0.789062 -1.523438 0.75 -1.488281 0.71875 -1.4375 C 0.6875 -1.382812 0.660156 -1.320312 0.640625 -1.25 C 0.628906 -1.1875 0.625 -1.113281 0.625 -1.03125 C 0.625 -0.800781 0.664062 -0.625 0.75 -0.5 C 0.84375 -0.382812 0.96875 -0.328125 1.125 -0.328125 C 1.207031 -0.328125 1.273438 -0.335938 1.328125 -0.359375 C 1.378906 -0.378906 1.425781 -0.40625 1.46875 -0.4375 C 1.507812 -0.46875 1.546875 -0.492188 1.578125 -0.515625 C 1.617188 -0.546875 1.660156 -0.5625 1.703125 -0.5625 C 1.710938 -0.5625 1.726562 -0.554688 1.75 -0.546875 C 1.769531 -0.535156 1.785156 -0.519531 1.796875 -0.5 C 1.816406 -0.476562 1.832031 -0.453125 1.84375 -0.421875 C 1.851562 -0.398438 1.859375 -0.378906 1.859375 -0.359375 C 1.859375 -0.304688 1.832031 -0.25 1.78125 -0.1875 C 1.726562 -0.132812 1.660156 -0.0820312 1.578125 -0.03125 C 1.492188 0.0078125 1.398438 0.046875 1.296875 0.078125 C 1.191406 0.109375 1.09375 0.125 1 0.125 C 0.863281 0.125 0.738281 0.0976562 0.625 0.046875 C 0.519531 -0.00390625 0.425781 -0.0703125 0.34375 -0.15625 C 0.269531 -0.25 0.210938 -0.359375 0.171875 -0.484375 C 0.128906 -0.609375 0.109375 -0.75 0.109375 -0.90625 C 0.109375 -1.070312 0.128906 -1.222656 0.171875 -1.359375 C 0.222656 -1.492188 0.289062 -1.613281 0.375 -1.71875 C 0.46875 -1.820312 0.570312 -1.898438 0.6875 -1.953125 C 0.8125 -2.015625 0.941406 -2.046875 1.078125 -2.046875 Z M 1.078125 -2.046875 "/></g></g></g><g fill="#8ba6d6" fill-opacity="1"><g transform="translate(60.359367, 22.414149)"><g><path d="M 1.234375 0.0625 C 1.140625 0.0625 1.039062 0.0390625 0.9375 0 C 0.84375 -0.0507812 0.75 -0.117188 0.65625 -0.203125 C 0.5625 -0.285156 0.472656 -0.382812 0.390625 -0.5 C 0.316406 -0.613281 0.25 -0.738281 0.1875 -0.875 C 0.132812 -1.007812 0.09375 -1.148438 0.0625 -1.296875 C 0.03125 -1.441406 0.015625 -1.582031 0.015625 -1.71875 C 0.015625 -1.832031 0.0351562 -1.914062 0.078125 -1.96875 C 0.128906 -2.019531 0.207031 -2.046875 0.3125 -2.046875 C 0.4375 -2.046875 0.507812 -1.988281 0.53125 -1.875 C 0.5625 -1.644531 0.601562 -1.4375 0.65625 -1.25 C 0.707031 -1.070312 0.765625 -0.921875 0.828125 -0.796875 C 0.898438 -0.671875 0.976562 -0.570312 1.0625 -0.5 C 1.15625 -0.425781 1.253906 -0.390625 1.359375 -0.390625 C 1.429688 -0.390625 1.5 -0.40625 1.5625 -0.4375 C 1.625 -0.476562 1.675781 -0.53125 1.71875 -0.59375 C 1.738281 -0.625 1.75 -0.648438 1.75 -0.671875 C 1.757812 -0.691406 1.765625 -0.71875 1.765625 -0.75 C 1.773438 -0.863281 1.785156 -0.976562 1.796875 -1.09375 C 1.804688 -1.207031 1.816406 -1.320312 1.828125 -1.4375 C 1.828125 -1.488281 1.832031 -1.53125 1.84375 -1.5625 C 1.851562 -1.59375 1.867188 -1.613281 1.890625 -1.625 C 1.910156 -1.644531 1.9375 -1.65625 1.96875 -1.65625 C 2 -1.664062 2.039062 -1.671875 2.09375 -1.671875 C 2.144531 -1.671875 2.191406 -1.660156 2.234375 -1.640625 C 2.273438 -1.628906 2.304688 -1.601562 2.328125 -1.5625 C 2.359375 -1.53125 2.378906 -1.488281 2.390625 -1.4375 C 2.398438 -1.382812 2.40625 -1.3125 2.40625 -1.21875 C 2.40625 -1.15625 2.398438 -1.09375 2.390625 -1.03125 C 2.378906 -0.976562 2.363281 -0.925781 2.34375 -0.875 C 2.332031 -0.832031 2.316406 -0.789062 2.296875 -0.75 C 2.285156 -0.707031 2.28125 -0.65625 2.28125 -0.59375 C 2.269531 -0.457031 2.257812 -0.335938 2.25 -0.234375 C 2.25 -0.140625 2.242188 -0.0546875 2.234375 0.015625 C 2.234375 0.0859375 2.234375 0.144531 2.234375 0.1875 C 2.234375 0.238281 2.234375 0.285156 2.234375 0.328125 C 2.234375 0.367188 2.234375 0.40625 2.234375 0.4375 C 2.234375 0.476562 2.234375 0.519531 2.234375 0.5625 C 2.234375 0.644531 2.234375 0.726562 2.234375 0.8125 C 2.242188 0.90625 2.25 0.992188 2.25 1.078125 C 2.257812 1.160156 2.265625 1.234375 2.265625 1.296875 C 2.273438 1.367188 2.28125 1.414062 2.28125 1.4375 C 2.28125 1.46875 2.269531 1.492188 2.25 1.515625 C 2.238281 1.546875 2.210938 1.570312 2.171875 1.59375 C 2.140625 1.625 2.101562 1.644531 2.0625 1.65625 C 2.019531 1.664062 1.972656 1.671875 1.921875 1.671875 C 1.878906 1.671875 1.84375 1.65625 1.8125 1.625 C 1.789062 1.59375 1.78125 1.554688 1.78125 1.515625 C 1.769531 1.453125 1.765625 1.375 1.765625 1.28125 C 1.765625 1.195312 1.757812 1.101562 1.75 1 C 1.75 0.894531 1.75 0.789062 1.75 0.6875 C 1.75 0.582031 1.75 0.484375 1.75 0.390625 C 1.75 0.304688 1.75 0.226562 1.75 0.15625 C 1.75 0.09375 1.75 0.046875 1.75 0.015625 C 1.75 -0.015625 1.742188 -0.0351562 1.734375 -0.046875 C 1.722656 -0.0546875 1.710938 -0.0625 1.703125 -0.0625 C 1.691406 -0.0625 1.675781 -0.0546875 1.65625 -0.046875 C 1.632812 -0.046875 1.613281 -0.0390625 1.59375 -0.03125 C 1.539062 0 1.484375 0.0195312 1.421875 0.03125 C 1.359375 0.0507812 1.296875 0.0625 1.234375 0.0625 Z M 1.234375 0.0625 "/></g></g></g></svg>